Results
version=1
nRows=24
nColumns=24
inDegrees=yes
endheader
time	pelvis_tilt	pelvis_list	pelvis_rotation	pelvis_tx	pelvis_ty	pelvis_tz	hip_flexion_r	hip_adduction_r	hip_rotation_r	knee_angle_r	ankle_angle_r	subtalar_angle_r	mtp_angle_r	hip_flexion_l	hip_adduction_l	hip_rotation_l	knee_angle_l	ankle_angle_l	subtalar_angle_l	mtp_angle_l	lumbar_extension	lumbar_bending	lumbar_rotation
      0.52100000	     -6.82661147	      4.73773751	      3.92801713	     -0.78021455	      1.02176784	      0.29033919	     36.59773666	     -6.11266704	     -1.95749115	     -7.03255546	      6.97331860	     -6.99776092	     10.56727246	    -14.77901852	      5.65999214	     12.06655558	     -0.17884755	     11.91605001	     -0.81021485	      7.52768330	     -3.79875769	     -4.76850100	     -4.86090181
      0.52516667	     -6.84161795	      4.74992504	      4.02673861	     -0.77425058	      1.02106780	      0.29066986	     36.50694511	     -6.12346342	     -1.81729817	     -7.39214287	      6.94178101	     -6.99624433	     10.56737396	    -14.93829934	      5.61742247	     12.12395125	     -0.54326332	     11.88159618	     -0.74545216	      7.53883803	     -3.76230309	     -4.68203380	     -4.86615607
      0.52933333	     -6.83794557	      4.75858718	      4.12465993	     -0.76823789	      1.02043851	      0.29101534	     36.37561727	     -6.12995395	     -1.71622711	     -7.72877010	      6.88635522	     -6.96816958	     10.58006785	    -15.03158508	      5.58022371	     11.80845982	     -1.09765766	     12.07669074	     -0.02117184	      7.67577680	     -3.71195609	     -4.57808652	     -5.02792287
      0.53350000	     -6.86054879	      4.76989278	      4.22194829	     -0.76219475	      1.01982214	      0.29135903	     36.26278687	     -6.13884681	     -1.63706574	     -8.05913575	      6.76027664	     -6.95794805	     10.58183272	    -15.15622640	      5.53853236	     11.84855074	     -1.51908937	     11.99801336	      0.04180432	      7.69545530	     -3.66177055	     -4.49777494	     -5.00796600
      0.53766667	     -6.85184242	      4.76396086	      4.31375881	     -0.75609885	      1.01929673	      0.29173704	     36.09033842	     -6.12609266	     -1.57790602	     -8.34880863	      6.57426307	     -7.00566832	     10.62383556	    -15.20365591	      5.48577306	     11.41006893	     -2.17361688	     12.22123640	      0.93782999	      7.93514984	     -3.61066015	     -4.37876450	     -5.11534592
      0.54183333	     -6.89390693	      4.75994299	      4.40799186	     -0.74995311	      1.01875264	      0.29210373	     35.96851317	     -6.11966160	     -1.55859044	     -8.64196298	      6.33311644	     -7.02889840	     10.68045424	    -15.21873732	      5.43547208	     11.16153791	     -2.78009691	     12.27170247	      1.46833802	      8.22092052	     -3.50234271	     -4.27752313	     -5.12902659
      0.54600000	     -6.89498235	      4.75025052	      4.48278724	     -0.74380456	      1.01831362	      0.29251039	     35.79899021	     -6.09654862	     -1.55178548	     -8.92584710	      6.02841514	     -7.07368695	     10.75677556	    -15.26528908	      5.37728250	     10.87506795	     -3.41236121	     12.29703582	      2.03063048	      8.58322989	     -3.45555799	     -4.15460396	     -5.19141445
      0.55016667	     -6.91764605	      4.72831671	      4.56521785	     -0.73760798	      1.01791115	      0.29291002	     35.64097079	     -6.06833156	     -1.59111511	     -9.19539392	      5.67813780	     -7.13332072	     10.83768200	    -15.25935890	      5.30681115	     10.56984674	     -4.09310263	     12.31170769	      2.61169016	      8.96640431	     -3.36919056	     -4.01911103	     -5.22197169
      0.55433333	     -6.93716108	      4.68371002	      4.65120816	     -0.73136733	      1.01758724	      0.29330215	     35.46546970	     -6.02302468	     -1.67044332	     -9.44386912	      5.29094384	     -7.21286985	     10.91235733	    -15.22896876	      5.21056469	     10.24427018	     -4.82874845	     12.31026914	      3.19142091	      9.33879252	     -3.27520324	     -3.84763698	     -5.25602706
      0.55850000	     -6.94589036	      4.66144070	      4.70709110	     -0.72516122	      1.01731037	      0.29375670	     35.30365494	     -5.98359376	     -1.72886173	     -9.72931825	      4.83750772	     -7.28004817	     11.00498012	    -15.17702545	      5.14316610	      9.83742583	     -5.62431709	     12.29508400	      3.87376871	      9.81728726	     -3.21684402	     -3.72101061	     -5.27431078
      0.56266667	     -6.93172530	      4.60382255	      4.78206262	     -0.71892133	      1.01715869	      0.29417083	     35.11369046	     -5.92893584	     -1.90915361	    -10.02167159	      4.39761932	     -7.29921401	     11.24149290	    -15.12060585	      5.02827909	      9.43805500	     -6.46918102	     12.26186959	      4.56358298	     11.06883283	     -3.19160222	     -3.55455195	     -5.17021988
      0.56683333	     -7.01222171	      4.53800396	      4.83506094	     -0.71260801	      1.01690722	      0.29464211	     35.01787850	     -5.85025761	     -1.97805225	    -10.29543247	      3.86549366	     -7.48058537	     11.27503476	    -14.95381833	      4.92046848	      9.07660131	     -7.33511129	     12.13312979	      5.04922905	     11.34125344	     -2.98741361	     -3.33749099	     -5.33699989
      0.57100000	     -7.02357130	      4.44913118	      4.88050611	     -0.70632466	      1.01682808	      0.29511448	     34.86742418	     -5.75361665	     -2.13676071	    -10.60748302	      3.35683930	     -7.53944727	     11.31395366	    -14.79437557	      4.77779112	      8.55572496	     -8.32306941	     12.08547698	      5.83315885	     11.68464731	     -2.90944978	     -3.11114094	     -5.27752135
      0.57516667	     -7.04309314	      4.36580198	      4.91477202	     -0.70005621	      1.01678241	      0.29562235	     34.74779100	     -5.65883290	     -2.28532204	    -10.96355652	      2.83736718	     -7.61882813	     11.35182804	    -14.60206593	      4.64011728	      8.03905332	     -9.34904706	     11.97643640	      6.57116447	     12.07340243	     -2.81550430	     -2.88991092	     -5.29032735
      0.57933333	     -6.98498300	      4.26260075	      4.90092111	     -0.69380875	      1.01690314	      0.29620984	     34.55954212	     -5.51825568	     -2.39989533	    -11.33214122	      2.29511635	     -7.68677832	     11.60992034	    -14.47107230	      4.47915947	      7.46936648	    -10.40512214	     11.79642047	      7.25284245	     14.71155755	     -2.84826997	     -2.63655471	     -5.21042650
      0.58350000	     -7.07968450	      4.17573038	      4.93649292	     -0.68752532	      1.01684193	      0.29673209	     34.57372321	     -5.43458712	     -2.59621138	    -11.81428594	      1.87931289	     -7.69855395	     11.60895346	    -14.13610387	      4.33953515	      6.99168284	    -11.54192764	     11.58352148	      7.91144018	     14.86912141	     -2.63785819	     -2.42454830	     -5.23932126
      0.58766667	     -7.05928807	      4.03897286	      4.93019798	     -0.68125843	      1.01701281	      0.29732123	     34.46323764	     -5.27861337	     -2.77129381	    -12.28082662	      1.42708012	     -7.72021766	     11.60540475	    -13.88184153	      4.13158944	      6.36910123	    -12.75000024	     11.39030348	      8.71055159	     15.10916659	     -2.60062540	     -2.13323986	     -5.17806634
      0.59183333	     -7.06315074	      3.90338145	      4.91413240	     -0.67499507	      1.01718390	      0.29793531	     34.40349752	     -5.12334465	     -2.93897696	    -12.80360078	      1.03800040	     -7.71370354	     11.59862380	    -13.57504283	      3.92610554	      5.77548027	    -14.00378820	     11.12894724	      9.41000744	     15.38824755	     -2.51932456	     -1.84908467	     -5.11919195
      0.59600000	     -7.04931586	      3.76929787	      4.86795836	     -0.66877302	      1.01740619	      0.29860872	     34.35889469	     -4.95638377	     -3.08410529	    -13.39007877	      0.66269682	     -7.69601036	     11.58464361	    -13.25521399	      3.71793006	      5.14394401	    -15.31167749	     10.82330859	     10.14120071	     15.77603415	     -2.48097456	     -1.56122649	     -5.06350965
      0.60016667	     -7.03905720	      3.59543366	      4.83824894	     -0.66251351	      1.01768526	      0.29925318	     34.30598520	     -4.76491655	     -3.26185407	    -13.96993693	      0.39063607	     -7.61889189	     11.56924788	    -12.89757222	      3.45828208	      4.54313967	    -16.67557973	     10.46518748	     10.77240664	     16.11694736	     -2.40991275	     -1.23072312	     -4.96764843
      0.60433333	     -6.99687983	      3.43273166	      4.76924196	     -0.65630719	      1.01801839	      0.29997784	     34.25591271	     -4.56397248	     -3.40361039	    -14.61725390	      0.13247310	     -7.54976369	     11.54519589	    -12.54370060	      3.20434892	      3.89806692	    -18.08447030	     10.07069310	     11.44755636	     16.52301140	     -2.40463654	     -0.90308051	     -4.88074121
      0.60850000	     -6.95884658	      3.24981924	      4.69831808	     -0.65009845	      1.01838343	      0.30070395	     34.20624687	     -4.34580311	     -3.54889903	    -15.26022281	     -0.07501048	     -7.44079268	     11.51754225	    -12.15785147	      2.92316357	      3.27490296	    -19.54077187	      9.59727218	     12.02795252	     16.91300174	     -2.37535016	     -0.55817123	     -4.77606054
      0.61266667	     -6.91829734	      3.06990556	      4.59824200	     -0.64391597	      1.01876538	      0.30150913	     34.16413045	     -4.10846096	     -3.61720939	    -15.92016544	     -0.28864748	     -7.45525711	     11.15637268	    -11.75403734	      2.64026496	      2.64807045	    -21.01252900	      8.97673225	     12.51351403	     21.01740510	     -2.36186401	     -0.20945997	     -4.68190721
      0.61683333	     -6.82379264	      2.87846034	      4.49918313	     -0.63776354	      1.01924968	      0.30227800	     34.07382366	     -3.87505573	     -3.78141741	    -16.60570727	     -0.36858526	     -7.20272637	     11.15300664	    -11.37414947	      2.33406712	      2.03336240	    -22.54910982	      8.42875561	     13.01084362	     21.07549693	     -2.41957026	      0.15312395	     -4.54857535
